<mxfile host="Electron" modified="2023-11-01T15:00:46.039Z" agent="Mozilla/5.0 (X11; Linux x86_64) AppleWebKit/537.36 (KHTML, like Gecko) draw.io/22.0.3 Chrome/114.0.5735.289 Electron/25.8.4 Safari/537.36" etag="6Br1kcuLXl1jVo90tPH3" version="22.0.3" type="device">
  <diagram name="Page-1" id="8TK2wuoS0OAWOpLG17Le">
    <mxGraphModel dx="2074" dy="1206" grid="1" gridSize="10" guides="1" tooltips="1" connect="1" arrows="1" fold="1" page="1" pageScale="1" pageWidth="850" pageHeight="1100" math="1" shadow="0">
      <root>
        <mxCell id="0" />
        <mxCell id="1" parent="0" />
        <mxCell id="lOlOz_oykruxPg7jvfAK-1" value="" style="verticalLabelPosition=bottom;shadow=0;dashed=0;align=center;html=1;verticalAlign=top;shape=mxgraph.electrical.logic_gates.logic_gate;operation=and;" parent="1" vertex="1">
          <mxGeometry x="400" y="160" width="100" height="60" as="geometry" />
        </mxCell>
        <mxCell id="lOlOz_oykruxPg7jvfAK-15" style="edgeStyle=orthogonalEdgeStyle;shape=connector;rounded=0;orthogonalLoop=1;jettySize=auto;html=1;exitX=0;exitY=0.75;exitDx=0;exitDy=0;exitPerimeter=0;labelBackgroundColor=default;strokeColor=default;align=center;verticalAlign=middle;fontFamily=Helvetica;fontSize=11;fontColor=default;endArrow=none;endFill=0;entryX=1.046;entryY=0.578;entryDx=0;entryDy=0;entryPerimeter=0;" parent="1" source="lOlOz_oykruxPg7jvfAK-2" target="lOlOz_oykruxPg7jvfAK-11" edge="1">
          <mxGeometry relative="1" as="geometry">
            <mxPoint x="180" y="350" as="targetPoint" />
            <Array as="points">
              <mxPoint x="240" y="255" />
              <mxPoint x="240" y="335" />
            </Array>
          </mxGeometry>
        </mxCell>
        <mxCell id="lOlOz_oykruxPg7jvfAK-16" style="edgeStyle=orthogonalEdgeStyle;shape=connector;rounded=0;orthogonalLoop=1;jettySize=auto;html=1;exitX=0;exitY=0.25;exitDx=0;exitDy=0;exitPerimeter=0;labelBackgroundColor=default;strokeColor=default;align=center;verticalAlign=middle;fontFamily=Helvetica;fontSize=11;fontColor=default;endArrow=none;endFill=0;" parent="1" source="lOlOz_oykruxPg7jvfAK-2" edge="1">
          <mxGeometry relative="1" as="geometry">
            <mxPoint x="160" y="225.11627906976747" as="targetPoint" />
          </mxGeometry>
        </mxCell>
        <mxCell id="lOlOz_oykruxPg7jvfAK-2" value="" style="verticalLabelPosition=bottom;shadow=0;dashed=0;align=center;html=1;verticalAlign=top;shape=mxgraph.electrical.logic_gates.logic_gate;operation=or;" parent="1" vertex="1">
          <mxGeometry x="250" y="210" width="100" height="60" as="geometry" />
        </mxCell>
        <mxCell id="lOlOz_oykruxPg7jvfAK-14" style="edgeStyle=orthogonalEdgeStyle;shape=connector;rounded=0;orthogonalLoop=1;jettySize=auto;html=1;exitX=0;exitY=0.25;exitDx=0;exitDy=0;exitPerimeter=0;labelBackgroundColor=default;strokeColor=default;align=center;verticalAlign=middle;fontFamily=Helvetica;fontSize=11;fontColor=default;endArrow=none;endFill=0;entryX=1.043;entryY=0.518;entryDx=0;entryDy=0;entryPerimeter=0;jumpStyle=arc;" parent="1" source="lOlOz_oykruxPg7jvfAK-3" target="lOlOz_oykruxPg7jvfAK-8" edge="1">
          <mxGeometry relative="1" as="geometry">
            <mxPoint x="170" y="160" as="targetPoint" />
            <Array as="points">
              <mxPoint x="210" y="305" />
              <mxPoint x="210" y="176" />
            </Array>
          </mxGeometry>
        </mxCell>
        <mxCell id="lOlOz_oykruxPg7jvfAK-3" value="" style="verticalLabelPosition=bottom;shadow=0;dashed=0;align=center;html=1;verticalAlign=top;shape=mxgraph.electrical.logic_gates.logic_gate;operation=and;" parent="1" vertex="1">
          <mxGeometry x="250" y="290" width="100" height="60" as="geometry" />
        </mxCell>
        <mxCell id="lOlOz_oykruxPg7jvfAK-4" value="" style="verticalLabelPosition=bottom;shadow=0;dashed=0;align=center;html=1;verticalAlign=top;shape=mxgraph.electrical.logic_gates.inverter_2" parent="1" vertex="1">
          <mxGeometry x="400" y="290" width="100" height="60" as="geometry" />
        </mxCell>
        <mxCell id="lOlOz_oykruxPg7jvfAK-5" style="edgeStyle=orthogonalEdgeStyle;rounded=0;orthogonalLoop=1;jettySize=auto;html=1;exitX=1;exitY=0.5;exitDx=0;exitDy=0;exitPerimeter=0;entryX=0;entryY=0.5;entryDx=0;entryDy=0;entryPerimeter=0;endArrow=none;endFill=0;" parent="1" source="lOlOz_oykruxPg7jvfAK-3" target="lOlOz_oykruxPg7jvfAK-4" edge="1">
          <mxGeometry relative="1" as="geometry" />
        </mxCell>
        <mxCell id="lOlOz_oykruxPg7jvfAK-6" style="edgeStyle=orthogonalEdgeStyle;shape=connector;rounded=0;orthogonalLoop=1;jettySize=auto;html=1;exitX=1;exitY=0.5;exitDx=0;exitDy=0;exitPerimeter=0;entryX=0;entryY=0.75;entryDx=0;entryDy=0;entryPerimeter=0;labelBackgroundColor=default;strokeColor=default;align=center;verticalAlign=middle;fontFamily=Helvetica;fontSize=11;fontColor=default;endArrow=none;endFill=0;" parent="1" source="lOlOz_oykruxPg7jvfAK-2" target="lOlOz_oykruxPg7jvfAK-1" edge="1">
          <mxGeometry relative="1" as="geometry" />
        </mxCell>
        <mxCell id="lOlOz_oykruxPg7jvfAK-8" value="CLK" style="text;html=1;align=center;verticalAlign=middle;resizable=0;points=[];autosize=1;strokeColor=none;fillColor=none;fontSize=11;fontFamily=Helvetica;fontColor=default;" parent="1" vertex="1">
          <mxGeometry x="120" y="160" width="40" height="30" as="geometry" />
        </mxCell>
        <mxCell id="lOlOz_oykruxPg7jvfAK-9" style="edgeStyle=orthogonalEdgeStyle;shape=connector;rounded=0;orthogonalLoop=1;jettySize=auto;html=1;exitX=0;exitY=0.25;exitDx=0;exitDy=0;exitPerimeter=0;entryX=1.032;entryY=0.519;entryDx=0;entryDy=0;entryPerimeter=0;labelBackgroundColor=default;strokeColor=default;align=center;verticalAlign=middle;fontFamily=Helvetica;fontSize=11;fontColor=default;endArrow=none;endFill=0;" parent="1" source="lOlOz_oykruxPg7jvfAK-1" target="lOlOz_oykruxPg7jvfAK-8" edge="1">
          <mxGeometry relative="1" as="geometry" />
        </mxCell>
        <mxCell id="lOlOz_oykruxPg7jvfAK-10" value="Run" style="text;html=1;align=center;verticalAlign=middle;resizable=0;points=[];autosize=1;strokeColor=none;fillColor=none;fontSize=11;fontFamily=Helvetica;fontColor=default;" parent="1" vertex="1">
          <mxGeometry x="120" y="210" width="40" height="30" as="geometry" />
        </mxCell>
        <mxCell id="lOlOz_oykruxPg7jvfAK-11" value="Reset" style="text;html=1;align=center;verticalAlign=middle;resizable=0;points=[];autosize=1;strokeColor=none;fillColor=none;fontSize=11;fontFamily=Helvetica;fontColor=default;" parent="1" vertex="1">
          <mxGeometry x="110" y="318" width="50" height="30" as="geometry" />
        </mxCell>
        <mxCell id="lOlOz_oykruxPg7jvfAK-12" style="edgeStyle=orthogonalEdgeStyle;shape=connector;rounded=0;orthogonalLoop=1;jettySize=auto;html=1;exitX=0;exitY=0.75;exitDx=0;exitDy=0;exitPerimeter=0;entryX=1.041;entryY=0.576;entryDx=0;entryDy=0;entryPerimeter=0;labelBackgroundColor=default;strokeColor=default;align=center;verticalAlign=middle;fontFamily=Helvetica;fontSize=11;fontColor=default;endArrow=none;endFill=0;" parent="1" source="lOlOz_oykruxPg7jvfAK-3" target="lOlOz_oykruxPg7jvfAK-11" edge="1">
          <mxGeometry relative="1" as="geometry" />
        </mxCell>
        <mxCell id="lOlOz_oykruxPg7jvfAK-17" value="$$CLK\cap \left(Run\cup Reset\right)$$&lt;svg style=&quot;vertical-align: 0px;&quot; xmlns:xlink=&quot;http://www.w3.org/1999/xlink&quot; viewBox=&quot;0 0 11 11&quot; role=&quot;img&quot; height=&quot;0.025ex&quot; width=&quot;0.025ex&quot; xmlns=&quot;http://www.w3.org/2000/svg&quot;&gt;&lt;defs&gt;&lt;/defs&gt;&lt;g transform=&quot;scale(1,-1)&quot; stroke-width=&quot;0&quot; fill=&quot;currentColor&quot; stroke=&quot;currentColor&quot;&gt;&lt;g data-mml-node=&quot;math&quot;&gt;&lt;/g&gt;&lt;/g&gt;&lt;/svg&gt;" style="text;html=1;align=center;verticalAlign=middle;resizable=0;points=[];autosize=1;strokeColor=none;fillColor=none;fontSize=11;fontFamily=Helvetica;fontColor=default;" parent="1" vertex="1">
          <mxGeometry x="450" y="170" width="220" height="30" as="geometry" />
        </mxCell>
        <mxCell id="lOlOz_oykruxPg7jvfAK-18" value="$$\overline{CLK\cap Reset}$$" style="text;html=1;align=center;verticalAlign=middle;resizable=0;points=[];autosize=1;strokeColor=none;fillColor=none;fontSize=11;fontFamily=Helvetica;fontColor=default;" parent="1" vertex="1">
          <mxGeometry x="450" y="290" width="170" height="30" as="geometry" />
        </mxCell>
      </root>
    </mxGraphModel>
  </diagram>
</mxfile>
